<svg width="22" height="22" viewBox="0 0 22 22" fill="none" xmlns="http://www.w3.org/2000/svg">
<g clip-path="url(#clip0_2_206)">
<path d="M20.7282 7.01705C21.2212 6.21053 21.4711 5.3741 21.4711 4.53093C21.4711 2.03255 19.4385 0 16.9402 0C14.754 0 12.9245 1.55633 12.5015 3.61921C9.50876 4.11963 7.09431 6.33647 6.33595 9.2681C3.08554 9.55827 0.528854 12.2965 0.528854 15.6211C0.528854 19.1385 3.39044 22 6.90778 22C9.27712 22 11.3487 20.7014 12.4487 18.7788C12.8868 18.8552 13.3332 18.8944 13.7805 18.8944C18.0211 18.8944 21.4711 15.4444 21.4711 11.2038C21.4711 9.87031 21.1269 8.56793 20.4743 7.41628C20.5659 7.2768 20.6512 7.14304 20.7282 7.01705ZM12.5692 5.69237C12.6926 6.14019 12.8869 6.58298 13.1522 7.01705C13.7794 8.04311 14.9491 9.58237 15.7112 10.5593H11.2789C11.3703 8.37117 11.9161 6.66166 12.5692 5.69237ZM11.2924 5.30222C11.0711 5.68352 10.8717 6.12034 10.698 6.60812C10.3362 7.62373 10.1049 8.80009 10.0168 10.0529C9.30685 9.65491 8.51357 9.38876 7.67013 9.28787C8.23569 7.47476 9.57395 6.02473 11.2924 5.30222ZM6.90778 20.7109C4.10123 20.7109 1.81792 18.4276 1.81792 15.6211C1.81792 12.8145 4.10123 10.5312 6.90778 10.5312C9.71433 10.5312 11.9976 12.8145 11.9976 15.6211C11.9976 18.4276 9.71437 20.7109 6.90778 20.7109ZM13.7805 17.6053C13.546 17.6053 13.3057 17.4998 13.0643 17.2917C13.209 16.759 13.2867 16.199 13.2867 15.6211C13.2867 14.2105 12.8262 12.9057 12.048 11.8483H16.2821C16.2172 13.3958 15.9193 14.8237 15.4266 15.9224C14.9541 16.9762 14.3387 17.6053 13.7805 17.6053ZM16.2707 17.1011C16.3874 16.8997 16.4984 16.6827 16.6029 16.4499C17.1665 15.1928 17.5045 13.5782 17.5719 11.8483H20.1498C19.9119 14.2163 18.3784 16.2078 16.2707 17.1011ZM18.1692 10.5592C18.5881 10.0222 19.1302 9.31537 19.6377 8.61708C19.9093 9.23197 20.0819 9.88702 20.1494 10.5592H18.1692ZM19.6283 6.34472C18.9797 7.40584 17.6626 9.11728 16.9402 10.0369C16.2177 9.11728 14.9007 7.40579 14.252 6.34472C13.8846 5.74359 13.6983 5.13335 13.6983 4.53093C13.6983 2.74334 15.1526 1.28906 16.9401 1.28906C18.7277 1.28906 20.182 2.74334 20.182 4.53093C20.1821 5.13339 19.9958 5.74363 19.6283 6.34472Z" fill="#0C2D50"/>
<path d="M16.9402 2.61087C15.874 2.61087 15.0066 3.47828 15.0066 4.54446C15.0066 5.61065 15.874 6.47806 16.9402 6.47806C18.0064 6.47806 18.8738 5.61065 18.8738 4.54446C18.8738 3.47828 18.0064 2.61087 16.9402 2.61087ZM16.9402 5.189C16.5848 5.189 16.2957 4.89986 16.2957 4.54446C16.2957 4.18907 16.5848 3.89993 16.9402 3.89993C17.2956 3.89993 17.5847 4.18907 17.5847 4.54446C17.5847 4.89986 17.2956 5.189 16.9402 5.189Z" fill="#0C2D50"/>
<path d="M7.54332 14.9676C7.39173 14.91 7.25492 14.8626 7.13422 14.8208C6.75708 14.6902 6.5981 14.6312 6.45119 14.4829C6.34037 14.3711 6.29134 14.2349 6.31661 14.1091C6.34166 13.9843 6.43937 13.8808 6.59178 13.8175C6.83292 13.7175 7.30008 13.8614 7.61723 14.0476C7.92411 14.2279 8.31908 14.1252 8.49938 13.8183C8.67963 13.5113 8.57694 13.1164 8.26997 12.9361C8.14532 12.8629 7.88308 12.7224 7.5523 12.6196V12.477C7.5523 12.121 7.26373 11.8324 6.90777 11.8324C6.55182 11.8324 6.26324 12.121 6.26324 12.477V12.5684C6.20781 12.5848 6.15255 12.6041 6.09768 12.6269C5.54433 12.8565 5.1635 13.3042 5.05277 13.8551C4.94311 14.4007 5.12354 14.9746 5.53548 15.3902C5.89908 15.7572 6.27588 15.8877 6.71222 16.0389C6.83009 16.0797 6.95195 16.1219 7.08588 16.1727C7.48433 16.324 7.66196 16.6193 7.56107 16.9626C7.48063 17.2361 7.20533 17.4061 6.8425 17.4061C6.54374 17.4061 6.20828 17.3003 5.94519 17.1232C5.64991 16.9244 5.24939 17.0027 5.05062 17.298C4.85185 17.5933 4.93009 17.9938 5.22537 18.1926C5.53612 18.4018 5.89629 18.5521 6.2632 18.6312V18.7652C6.2632 19.1212 6.55178 19.4098 6.90773 19.4098C7.26368 19.4098 7.55226 19.1212 7.55226 18.7652V18.5811C8.154 18.3798 8.62167 17.925 8.79771 17.3262C9.09097 16.3291 8.57513 15.3592 7.54332 14.9676Z" fill="#0C2D50"/>
</g>
<defs>
<clipPath id="clip0_2_206">
<rect width="22" height="22" fill="white"/>
</clipPath>
</defs>
</svg>
