<svg width="22" height="22" viewBox="0 0 22 22" fill="none" xmlns="http://www.w3.org/2000/svg">
<g clip-path="url(#clip0_10_17)">
<path d="M12.0083 0.916687C9.7916 0.927476 7.64106 1.67332 5.89365 3.03737C4.14625 4.40142 2.90071 6.30661 2.35217 8.45444L1.68117 7.43969C1.61765 7.33345 1.53326 7.24118 1.43311 7.16844C1.33296 7.09569 1.21911 7.04399 1.09844 7.01644C0.977761 6.98889 0.852756 6.98607 0.730958 7.00814C0.609161 7.03021 0.493096 7.07672 0.389762 7.14487C0.286428 7.21302 0.197966 7.30138 0.129711 7.40465C0.0614552 7.50791 0.0148204 7.62392 -0.00738148 7.7457C-0.0295834 7.86747 -0.0268925 7.99248 0.000529006 8.11318C0.0279505 8.23389 0.0795344 8.34779 0.15217 8.44802L2.16884 11.5042C2.30892 11.7002 2.51546 11.8387 2.75 11.8938C2.9895 11.9413 3.23808 11.8936 3.443 11.7609L6.468 9.7231C6.5723 9.65797 6.66243 9.57252 6.73302 9.47184C6.80362 9.37116 6.85323 9.2573 6.87891 9.13705C6.9046 9.0168 6.90582 8.8926 6.88252 8.77187C6.85921 8.65113 6.81186 8.53632 6.74327 8.43426C6.67467 8.3322 6.58625 8.24499 6.48326 8.17781C6.38027 8.11063 6.26481 8.06486 6.14377 8.04323C6.02272 8.02159 5.89856 8.02453 5.77867 8.05186C5.65878 8.0792 5.54562 8.13038 5.44592 8.20235L4.07 9.13002C4.43619 7.64354 5.21284 6.28993 6.31133 5.22361C7.40982 4.1573 8.78592 3.42123 10.2826 3.09937C11.7793 2.77752 13.3364 2.88285 14.7761 3.40335C16.2158 3.92385 17.4802 4.83855 18.4251 6.04309C19.37 7.24764 19.9572 8.69352 20.1199 10.2158C20.2825 11.738 20.014 13.2753 19.345 14.6523C18.676 16.0293 17.6334 17.1905 16.3361 18.0035C15.0389 18.8164 13.5393 19.2484 12.0083 19.25C10.696 19.2465 9.40388 18.9261 8.24189 18.3161C7.07989 17.7062 6.08236 16.8247 5.33409 15.7465C5.26707 15.6436 5.18006 15.5552 5.07822 15.4866C4.97639 15.418 4.8618 15.3705 4.74126 15.347C4.62073 15.3235 4.4967 15.3245 4.37655 15.3499C4.25639 15.3752 4.14256 15.4245 4.04181 15.4947C3.94107 15.5649 3.85545 15.6547 3.79006 15.7586C3.72466 15.8626 3.68082 15.9786 3.66114 16.0998C3.64145 16.221 3.64632 16.345 3.67546 16.4643C3.70459 16.5836 3.75741 16.6958 3.83075 16.7943C5.04723 18.548 6.79418 19.8653 8.81486 20.5525C10.8355 21.2397 13.0234 21.2606 15.0568 20.6121C17.0903 19.9637 18.8621 18.68 20.1118 16.9498C21.3616 15.2197 22.0234 13.1342 22 11C22.009 8.33886 20.9622 5.78276 19.089 3.89245C17.2159 2.00214 14.6695 0.931964 12.0083 0.916687Z" fill="#0C2D50"/>
<path d="M11.9167 5.45416C11.6736 5.45416 11.4404 5.55074 11.2685 5.72265C11.0966 5.89456 11 6.12771 11 6.37083V11C11.0039 11.2423 11.0999 11.474 11.2686 11.6481L14.0186 14.4228C14.1912 14.5927 14.4232 14.6884 14.6654 14.6896C14.9075 14.6908 15.1405 14.5974 15.3148 14.4292C15.4873 14.2581 15.5849 14.0254 15.5859 13.7823C15.5869 13.5392 15.4914 13.3057 15.3202 13.1331L12.8333 10.6232V6.37083C12.8333 6.12771 12.7368 5.89456 12.5648 5.72265C12.3929 5.55074 12.1598 5.45416 11.9167 5.45416Z" fill="#0C2D50"/>
</g>
<defs>
<clipPath id="clip0_10_17">
<rect width="22" height="22" fill="white"/>
</clipPath>
</defs>
</svg>
