<svg width="20" height="20" viewBox="0 0 20 20" fill="none" xmlns="http://www.w3.org/2000/svg">
<g clip-path="url(#clip0_10_41)">
<path d="M9.9668 18.3057H2.49168C2.0332 18.3057 1.66113 17.9336 1.66113 17.4751V2.52492C1.66113 2.06645 2.03324 1.69438 2.49168 1.69438H9.9668C10.4261 1.69438 10.7973 1.32313 10.7973 0.863828C10.7973 0.404531 10.4261 0.0332031 9.9668 0.0332031H2.49168C1.11793 0.0332031 0 1.15117 0 2.52492V17.4751C0 18.8488 1.11793 19.9668 2.49168 19.9668H9.9668C10.4261 19.9668 10.7973 19.5955 10.7973 19.1362C10.7973 18.6769 10.4261 18.3057 9.9668 18.3057Z" fill="#0C2D50"/>
<path d="M19.7525 9.40861L14.7027 4.42521C14.3771 4.10294 13.8505 4.10712 13.5282 4.43353C13.206 4.75994 13.2093 5.28568 13.5366 5.60794L17.1454 9.16939H7.47508C7.01578 9.16939 6.64453 9.54064 6.64453 9.99994C6.64453 10.4592 7.01578 10.8305 7.47508 10.8305H17.1454L13.5366 14.392C13.2093 14.7142 13.2068 15.24 13.5282 15.5664C13.691 15.7308 13.9053 15.8139 14.1196 15.8139C14.3306 15.8139 14.5415 15.7342 14.7027 15.5747L19.7525 10.5913C19.9103 10.4351 20 10.2225 20 9.9999C20 9.7774 19.9111 9.5656 19.7525 9.40861Z" fill="#0C2D50"/>
</g>
<defs>
<clipPath id="clip0_10_41">
<rect width="20" height="20" fill="white"/>
</clipPath>
</defs>
</svg>
