<svg width="22" height="22" viewBox="0 0 22 22" fill="none" xmlns="http://www.w3.org/2000/svg">
<g clip-path="url(#clip0_10_2)">
<path d="M19.25 17.1875C19.25 17.0052 19.1776 16.8303 19.0486 16.7014C18.9197 16.5724 18.7448 16.5 18.5625 16.5H15.8125C15.6302 16.5 15.4553 16.5724 15.3264 16.7014C15.1974 16.8303 15.125 17.0052 15.125 17.1875V19.9375H13.0625V14.4375C13.0625 14.2552 12.9901 14.0803 12.8611 13.9514C12.7322 13.8224 12.5573 13.75 12.375 13.75H9.625C9.44266 13.75 9.2678 13.8224 9.13886 13.9514C9.00993 14.0803 8.9375 14.2552 8.9375 14.4375V19.9375H6.875V8.9375C6.875 8.75516 6.80257 8.5803 6.67364 8.45136C6.5447 8.32243 6.36984 8.25 6.1875 8.25H3.4375C3.25516 8.25 3.0803 8.32243 2.95136 8.45136C2.82243 8.5803 2.75 8.75516 2.75 8.9375V19.9375H0.6875V21.3125H21.3125V19.9375H19.25V17.1875ZM16.5 17.875H17.875V19.9375H16.5V17.875ZM10.3125 15.125H11.6875V19.9375H10.3125V15.125ZM4.125 9.625H5.5V19.9375H4.125V9.625Z" fill="#0C2D50"/>
<path d="M9.04751 9.28128C9.30005 10.4421 9.97303 11.4685 10.9369 12.1629C11.9008 12.8574 13.0875 13.1707 14.2686 13.0427C15.4496 12.9147 16.5416 12.3544 17.3344 11.4696C18.1271 10.5848 18.5645 9.43801 18.5625 8.25003C18.5625 8.06769 18.4901 7.89282 18.3611 7.76389C18.2322 7.63496 18.0573 7.56253 17.875 7.56253H14.7813C14.6901 7.56253 14.6027 7.52631 14.5382 7.46184C14.4737 7.39738 14.4375 7.30994 14.4375 7.21878V4.12503C14.4375 3.94269 14.3651 3.76782 14.2361 3.63889C14.1072 3.50996 13.9323 3.43753 13.75 3.43753C13.034 3.43521 12.3267 3.59406 11.6805 3.9023C11.0342 4.21054 10.4657 4.66027 10.0169 5.21815C9.5604 5.77905 9.2362 6.43562 9.06838 7.13906C8.90055 7.84249 8.89342 8.5747 9.04751 9.28128ZM11.11 6.0844C11.6039 5.47167 12.2931 5.04698 13.0625 4.88128V7.21878C13.0625 7.67462 13.2436 8.11179 13.5659 8.43411C13.8882 8.75644 14.3254 8.93753 14.7813 8.93753H17.1188C17.0149 9.44825 16.7962 9.92866 16.4793 10.3424C16.1624 10.7562 15.7555 11.0925 15.2895 11.3259C14.8235 11.5592 14.3105 11.6836 13.7893 11.6895C13.2682 11.6954 12.7525 11.5828 12.2813 11.3601C11.8101 11.1373 11.3957 10.8104 11.0695 10.4039C10.7432 9.99747 10.5137 9.52216 10.3982 9.01392C10.2827 8.50569 10.2843 7.97785 10.4029 7.47033C10.5214 6.9628 10.7538 6.48888 11.0825 6.0844H11.11Z" fill="#0C2D50"/>
<path d="M17.5312 6.1875H20.625C20.8073 6.1875 20.9822 6.11507 21.1111 5.98614C21.2401 5.8572 21.3125 5.68234 21.3125 5.5C21.3125 4.22365 20.8055 2.99957 19.903 2.09705C19.0004 1.19453 17.7764 0.6875 16.5 0.6875C16.3177 0.6875 16.1428 0.759933 16.0139 0.888864C15.8849 1.0178 15.8125 1.19266 15.8125 1.375V4.46875C15.8125 4.92459 15.9936 5.36176 16.3159 5.68409C16.6382 6.00642 17.0754 6.1875 17.5312 6.1875ZM17.1875 2.13125C17.8481 2.26598 18.4545 2.592 18.9313 3.06874C19.408 3.54548 19.734 4.15189 19.8687 4.8125H17.5312C17.4401 4.8125 17.3526 4.77628 17.2882 4.71182C17.2237 4.64735 17.1875 4.55992 17.1875 4.46875V2.13125Z" fill="#0C2D50"/>
<path d="M0.6875 0.6875H10.3125V2.0625H0.6875V0.6875Z" fill="#0C2D50"/>
<path d="M0.6875 3.4375H6.875V4.8125H0.6875V3.4375Z" fill="#0C2D50"/>
</g>
<defs>
<clipPath id="clip0_10_2">
<rect width="22" height="22" fill="white"/>
</clipPath>
</defs>
</svg>
