<svg width="22" height="22" viewBox="0 0 22 22" fill="none" xmlns="http://www.w3.org/2000/svg">
<g clip-path="url(#clip0_2_212)">
<path d="M11 22C17.0568 22 22 17.0565 22 11C22 4.94312 17.0565 0 11 0C4.94317 0 0 4.94351 0 11C0 17.0569 4.94351 22 11 22ZM14.2633 20.1462C14.8866 19.3498 15.3643 18.3998 15.7232 17.4449H18.2569C17.1832 18.6527 15.8139 19.5913 14.2633 20.1462ZM19.2252 16.1562H16.1399C16.5202 14.7732 16.7434 13.2397 16.7908 11.6445H20.689C20.5804 13.294 20.0582 14.8322 19.2252 16.1562ZM19.2252 5.84375C20.0582 7.16783 20.5804 8.70598 20.689 10.3555H16.7908C16.7434 8.7603 16.5202 7.22683 16.1399 5.84375H19.2252ZM18.2568 4.55469H15.7231C15.3644 3.60057 14.8867 2.65048 14.2633 1.8538C15.8139 2.40874 17.1832 3.34727 18.2568 4.55469ZM11.6445 1.39932C12.9094 1.82802 13.8167 3.33227 14.3357 4.55469H11.6445V1.39932ZM11.6445 5.84375H14.7996C15.2094 7.20062 15.4505 8.73997 15.5013 10.3555H11.6445V5.84375ZM11.6445 11.6441H15.5013C15.4505 13.26 15.2094 14.7994 14.7996 16.1562H11.6445V11.6441ZM11.6445 17.4449H14.3357C13.8159 18.6698 12.9083 20.1724 11.6445 20.6007V17.4449ZM3.74318 17.4453H6.27688C6.63558 18.3994 7.11326 19.3495 7.7367 20.1462C6.18608 19.5913 4.81675 18.6527 3.74318 17.4453ZM10.3555 20.6007C9.09171 20.1724 8.18421 18.67 7.66429 17.4453H10.3555V20.6007ZM10.3555 16.1562H7.2004C6.79057 14.7994 6.54947 13.26 6.49872 11.6445H10.3555V16.1562ZM10.3555 10.3555H6.49872C6.54947 8.73997 6.79057 7.20062 7.2004 5.84375H10.3555V10.3555ZM10.3555 1.39932V4.55469H7.66429C8.18417 3.33016 9.09163 1.82768 10.3555 1.39932ZM7.73665 1.8538C7.11339 2.65023 6.63571 3.60014 6.27683 4.55469H3.74318C4.81675 3.34727 6.18608 2.4087 7.73665 1.8538ZM2.77479 5.84332H5.86012C5.47976 7.22683 5.25663 8.7603 5.20919 10.3555H1.31098C1.4196 8.70598 1.94176 7.16783 2.77479 5.84332ZM1.31098 11.6445H5.20919C5.25663 13.2397 5.47976 14.7732 5.86012 16.1562H2.77479C1.94176 14.8322 1.4196 13.294 1.31098 11.6445Z" fill="#0C2D50"/>
</g>
<defs>
<clipPath id="clip0_2_212">
<rect width="22" height="22" fill="white"/>
</clipPath>
</defs>
</svg>
