<svg width="72" height="72" viewBox="0 0 72 72" fill="none" xmlns="http://www.w3.org/2000/svg">
<path d="M62.873 37.3048H54.4472C55.0657 35.262 55.3196 33.1748 55.1538 30.9883C54.6127 23.8324 51.1674 18.8188 47.1587 14.1699C46.4631 13.3639 45.138 13.9271 45.2263 14.9871C45.2263 15.0203 45.3919 16.9859 45.5244 19.0839C44.8729 17.803 44.144 16.5109 43.4152 15.6828C41.571 13.5956 40.6655 11.3981 40.6544 8.97974C40.6544 6.992 41.5599 2.01163 41.5599 1.96733C41.7367 1.02866 40.7097 0.321879 39.8925 0.829816C33.1342 5.04829 27.5023 10.2054 26.1882 18.2666C26.0335 17.6151 25.8901 16.9747 25.7906 16.4887C25.6139 15.5391 24.3771 15.263 23.8139 16.058C23.6152 16.334 18.9329 22.9487 17.7844 26.7255C16.6469 30.5023 16.4924 34.0359 17.2986 37.3046H9.11588C6.9736 37.3046 5.22887 39.0494 5.22887 41.1917V67.4519C5.22887 69.5942 6.9736 71.3391 9.11588 71.3391H62.873C65.0153 71.3391 66.7711 69.5942 66.7711 67.4519V41.192C66.7711 39.0497 65.0154 37.3048 62.873 37.3048ZM19.9049 27.3662C20.5785 25.1466 22.743 21.635 24.2117 19.4043C24.4326 20.2546 24.7087 21.116 24.9847 21.646C25.6694 22.949 26.2104 23.0484 26.343 23.1037C27.0828 23.3907 28.2204 22.8276 28.143 21.2484C28.2423 15.2741 31.1357 9.24468 38.9762 4.05463C38.7222 5.70008 38.446 7.77599 38.446 8.99085C38.4572 11.9282 39.5724 14.6668 41.7589 17.1515C43.581 19.2276 45.116 24.2854 46.4191 24.7603C47.1147 25.0142 47.8657 24.5173 47.8989 23.7662C47.9541 22.6509 47.8325 20.3099 47.689 18.2999C50.9798 22.5073 52.6473 27.1122 52.9564 31.1539C53.1111 33.2743 52.824 35.3171 52.1172 37.3047H44.586C44.2768 36.4764 43.8683 35.7145 43.316 35.0409C41.0302 32.2691 39.0204 29.4753 39.6608 25.6434C39.8153 24.6937 38.7553 24.009 37.9602 24.5391C34.4375 26.8691 32.273 30.0385 31.5111 33.9585C31.3234 34.8751 31.1466 36.0238 31.1357 37.3046H19.5736C18.7013 34.2792 18.8117 30.9773 19.9049 27.3662ZM64.5626 67.4522C64.5626 68.3799 63.8007 69.1307 62.8732 69.1307H9.11588C8.18832 69.1307 7.43738 68.3799 7.43738 67.4522V41.192C7.43738 40.2644 8.18832 39.5135 9.11588 39.5135H62.873C63.8006 39.5135 64.5625 40.2644 64.5625 41.192V67.4522H64.5626Z" fill="white"/>
<path d="M36.0055 42.3623C30.6496 42.3623 26.2987 47.7291 26.2987 54.3218C26.2987 60.9145 30.6496 66.2812 36.0055 66.2812C41.3502 66.2812 45.6902 60.9145 45.6902 54.3218C45.6902 47.7291 41.3502 42.3623 36.0055 42.3623ZM35.7957 53.2174H35.8178H36.171C37.96 53.2174 39.4066 54.664 39.4066 56.442C39.4066 57.8995 38.4238 59.1143 37.0987 59.5231V60.0531C37.0987 60.6603 36.6128 61.1574 35.9944 61.1574C35.387 61.1574 34.89 60.6604 34.89 60.0531V59.6665H33.6863C33.0789 59.6665 32.582 59.1806 32.582 58.5622C32.582 57.9549 33.0789 57.4578 33.6863 57.4578H36.171C36.7342 57.4578 37.198 57.0052 37.198 56.442C37.198 55.8788 36.7342 55.4259 36.171 55.4259H35.8178C34.0287 55.4259 32.5821 53.9793 32.5821 52.1903C32.5821 50.7327 33.5649 49.518 34.89 49.1205V48.5793C34.89 47.972 35.387 47.475 35.9944 47.475C36.6128 47.475 37.0987 47.9718 37.0987 48.5793V48.9658H38.3025C38.9098 48.9658 39.4068 49.4626 39.4068 50.0701C39.4068 50.6776 38.9098 51.1744 38.3025 51.1744H35.8178C35.2545 51.1744 34.7908 51.6271 34.7908 52.1903C34.7908 52.7425 35.2436 53.2063 35.7957 53.2174Z" fill="white"/>
<path d="M20.3577 54.3336C20.3577 56.752 18.37 58.7286 15.9406 58.7286C13.5111 58.7286 11.5343 56.752 11.5343 54.3336C11.5343 51.8931 13.5111 49.9053 15.9406 49.9053C18.3698 49.9054 20.3577 51.8931 20.3577 54.3336Z" fill="white"/>
<path d="M60.4547 54.3336C60.4547 56.752 58.4779 58.7286 56.0375 58.7286C53.6081 58.7286 51.6313 56.752 51.6313 54.3336C51.6313 51.8931 53.6081 49.9053 56.0375 49.9053C58.4779 49.9054 60.4547 51.8931 60.4547 54.3336Z" fill="white"/>
</svg>
