<svg width="15" height="15" viewBox="0 0 15 15" fill="none" xmlns="http://www.w3.org/2000/svg">
<g clip-path="url(#clip0_18_2)">
<path fill-rule="evenodd" clip-rule="evenodd" d="M14.7817 0C14.5517 0 14.1284 0.04321 13.5105 0.128046C12.8927 0.213198 12.4933 0.295613 12.3132 0.3736C12.1324 0.451587 11.806 0.722225 11.3345 1.18244C10.8626 1.64435 10.1782 2.49673 9.28315 3.73905C8.38675 4.98273 7.5508 6.29555 6.7736 7.67855C5.99608 9.06207 5.27045 10.4984 4.59702 11.9874C3.974 10.9388 3.41097 10.2278 2.90523 9.85382C2.40073 9.47845 1.97514 9.29117 1.62911 9.29117C1.35886 9.29117 1.02031 9.43283 0.6119 9.71482C0.204013 9.99767 0 10.2745 0 10.5476C0 10.7452 0.18717 11.0381 0.561515 11.4254C1.30292 12.1954 1.95919 13.0121 2.52712 13.8766C2.87405 14.3936 3.10472 14.7108 3.21975 14.8265C3.33413 14.9411 3.68262 15 4.26547 15C5.07622 15 5.55778 14.8978 5.71095 14.6922C5.86275 14.4943 6.14363 13.9042 6.55333 12.9205C7.56563 10.4577 8.82425 8.10577 10.3287 5.8665C11.8344 3.62817 13.2135 1.93483 14.469 0.78767C14.7191 0.56973 14.8694 0.428522 14.9223 0.363288C14.9737 0.29784 15 0.231974 15 0.163366C14.9999 0.0551333 14.927 0 14.7817 0Z" fill="#6D8196"/>
</g>
<defs>
<clipPath id="clip0_18_2">
<rect width="15" height="15" fill="white"/>
</clipPath>
</defs>
</svg>
