<svg width="26" height="26" viewBox="0 0 26 26" fill="none" xmlns="http://www.w3.org/2000/svg">
<path d="M23.3999 23.4002V15.7822C23.3999 12.0382 22.5939 9.17822 18.2259 9.17822C16.1199 9.17822 14.7159 10.3222 14.1439 11.4142H14.0919V9.51622H9.95795V23.4002H14.2739V16.5102C14.2739 14.6902 14.6119 12.9482 16.8479 12.9482C19.0579 12.9482 19.0839 15.0022 19.0839 16.6142V23.3742H23.3999V23.4002Z" fill="#47BFA9"/>
<path d="M2.93799 9.51611H7.25399V23.4001H2.93799V9.51611Z" fill="#47BFA9"/>
<path d="M5.09598 2.6001C3.71798 2.6001 2.59998 3.7181 2.59998 5.0961C2.59998 6.4741 3.71798 7.6181 5.09598 7.6181C6.47398 7.6181 7.59198 6.4741 7.59198 5.0961C7.59198 3.7181 6.47398 2.6001 5.09598 2.6001Z" fill="#47BFA9"/>
</svg>
