<svg width="73" height="73" viewBox="0 0 73 73" fill="none" xmlns="http://www.w3.org/2000/svg">
<g clip-path="url(#clip0_92_278)">
<path d="M51.8984 43.8936V29.1061C51.8986 28.7002 51.7911 28.3015 51.587 27.9506C51.383 27.5998 51.0895 27.3092 50.7366 27.1086L37.6195 19.6854C37.2776 19.4934 36.8921 19.3926 36.5 19.3926C36.1079 19.3926 35.7224 19.4934 35.3805 19.6854L22.2645 27.1084C21.9113 27.3088 21.6176 27.5993 21.4133 27.9502C21.209 28.3012 21.1014 28.7 21.1016 29.1061V43.8936C21.1014 44.2995 21.2089 44.6982 21.413 45.0491C21.617 45.4 21.9105 45.6905 22.2634 45.8911C22.2634 45.8911 35.3611 53.3033 35.3805 53.3143C35.7243 53.5004 36.109 53.5978 36.5 53.5978C36.8909 53.5978 37.2756 53.5004 37.6194 53.3143L50.7355 45.8914C51.0887 45.6909 51.3824 45.4004 51.5867 45.0495C51.791 44.6985 51.8985 44.2997 51.8984 43.8936ZM49.6172 43.8936L36.5045 51.3288L23.3828 43.8936L23.3873 29.0942L36.4955 21.6709L49.6172 29.1061V43.8936Z" fill="white"/>
<path d="M41.6328 39.4491L41.6345 42.5833H31.3672V39.4491C31.3783 38.8795 31.5908 38.3322 31.9671 37.9044C32.3433 37.4765 32.8589 37.1958 33.4225 37.1119C32.6672 36.6832 32.0086 36.1032 31.4878 35.4082C30.7641 35.8071 30.1599 36.3919 29.7377 37.1022C29.3155 37.8126 29.0905 38.6228 29.0859 39.4491V42.5833C29.0866 43.1882 29.3271 43.768 29.7548 44.1957C30.1825 44.6234 30.7624 44.8639 31.3672 44.8646H41.6328C42.2376 44.8639 42.8175 44.6234 43.2452 44.1957C43.6729 43.768 43.9134 43.1882 43.9141 42.5833V39.4491C43.9095 38.6228 43.6845 37.8126 43.2623 37.1022C42.8401 36.3919 42.2359 35.8071 41.5122 35.4082C40.9914 36.1032 40.3328 36.6832 39.5775 37.1119C40.1411 37.1958 40.6567 37.4765 41.0329 37.9044C41.4092 38.3322 41.6217 38.8795 41.6328 39.4491Z" fill="white"/>
<path d="M36.5 35.6436C38.7048 35.6436 40.4922 33.8562 40.4922 31.6514C40.4922 29.4465 38.7048 27.6592 36.5 27.6592C34.2952 27.6592 32.5078 29.4465 32.5078 31.6514C32.5078 33.8562 34.2952 35.6436 36.5 35.6436Z" fill="white"/>
<path d="M42.2031 8.83999V3.70718C42.2031 3.50478 42.1493 3.30603 42.0471 3.13133C41.9449 2.95662 41.7981 2.81224 41.6217 2.71302L37.0592 0.146616C36.8885 0.0504967 36.6959 0 36.5 0C36.3041 0 36.1115 0.0504967 35.9408 0.146616L31.3783 2.71302C31.2019 2.81224 31.0551 2.95662 30.9529 3.13133C30.8507 3.30603 30.7969 3.50478 30.7969 3.70718V8.83999C30.7969 9.04239 30.8507 9.24113 30.9529 9.41584C31.0551 9.59055 31.2019 9.73492 31.3783 9.83414L35.9408 12.4005C36.1121 12.4949 36.3045 12.5443 36.5 12.5443C36.6955 12.5443 36.8879 12.4949 37.0592 12.4005L41.6217 9.83414C41.7981 9.73492 41.9449 9.59055 42.0471 9.41584C42.1493 9.24113 42.2031 9.04239 42.2031 8.83999Z" fill="white"/>
<path d="M30.7969 64.1632V69.296C30.7969 69.4984 30.8507 69.6972 30.9529 69.8719C31.0551 70.0466 31.2019 70.191 31.3783 70.2902L35.9408 72.8566C36.1121 72.9509 36.3045 73.0004 36.5 73.0004C36.6955 73.0004 36.8879 72.9509 37.0592 72.8566L41.6217 70.2902C41.7981 70.191 41.9449 70.0466 42.0471 69.8719C42.1493 69.6972 42.2031 69.4984 42.2031 69.296V64.1632C42.2031 63.9608 42.1493 63.7621 42.0471 63.5874C41.9449 63.4127 41.7981 63.2683 41.6217 63.1691L37.0592 60.6027C36.8885 60.5066 36.6959 60.4561 36.5 60.4561C36.3041 60.4561 36.1115 60.5066 35.9408 60.6027L31.3783 63.1691C31.2019 63.2683 31.0551 63.4127 30.9529 63.5874C30.8507 63.7621 30.7969 63.9608 30.7969 64.1632Z" fill="white"/>
<path d="M18.1659 26.0697L14.744 24.3587C14.61 24.2917 14.4641 24.2518 14.3147 24.2412C14.1653 24.2305 14.0152 24.2494 13.8731 24.2968C13.5861 24.3925 13.3488 24.5983 13.2135 24.8689C13.0782 25.1395 13.0559 25.4528 13.1516 25.7398C13.2473 26.0268 13.4531 26.2641 13.7237 26.3994L17.1456 28.1103C17.4168 28.2415 17.7286 28.2617 18.0145 28.1664C18.3004 28.0711 18.5378 27.8679 18.676 27.6001C18.7431 27.4662 18.783 27.3203 18.7937 27.1708C18.8043 27.0214 18.7854 26.8713 18.738 26.7292C18.6906 26.5871 18.6157 26.4557 18.5175 26.3425C18.4194 26.2294 18.2999 26.1366 18.1659 26.0697Z" fill="white"/>
<path d="M59.7386 24.869C59.6716 24.735 59.5789 24.6155 59.4658 24.5173C59.3526 24.4191 59.2212 24.3442 59.0791 24.2968C58.9369 24.2494 58.7869 24.2305 58.6374 24.2412C58.488 24.2518 58.3421 24.2918 58.2081 24.3589L54.7862 26.0698C54.6522 26.1368 54.5327 26.2295 54.4346 26.3427C54.3364 26.4558 54.2615 26.5872 54.2141 26.7294C54.1667 26.8715 54.1478 27.0215 54.1585 27.171C54.1691 27.3204 54.2091 27.4663 54.2761 27.6003C54.4161 27.8664 54.6535 28.068 54.9387 28.1631C55.224 28.2582 55.5349 28.2393 55.8066 28.1105L59.2284 26.3995C59.3624 26.3326 59.4819 26.2398 59.5801 26.1267C59.6783 26.0135 59.7532 25.8821 59.8005 25.74C59.8479 25.5978 59.8668 25.4478 59.8562 25.2983C59.8456 25.1489 59.8056 25.003 59.7386 24.869Z" fill="white"/>
<path d="M17.1456 45.603L13.7237 47.314C13.5897 47.3809 13.4702 47.4737 13.3721 47.5868C13.2739 47.7 13.199 47.8314 13.1516 47.9735C13.1042 48.1156 13.0853 48.2657 13.096 48.4151C13.1066 48.5646 13.1465 48.7104 13.2136 48.8444C13.3541 49.11 13.5915 49.3112 13.8766 49.4062C14.1616 49.5012 14.4723 49.4827 14.7441 49.3546L18.1659 47.6437C18.3 47.5767 18.4195 47.484 18.5177 47.3708C18.6159 47.2577 18.6909 47.1262 18.7383 46.9841C18.7857 46.842 18.8046 46.6919 18.794 46.5424C18.7834 46.3929 18.7434 46.247 18.6764 46.113C18.6094 45.979 18.5167 45.8595 18.4035 45.7613C18.2903 45.6632 18.1588 45.5883 18.0167 45.5409C17.8745 45.4935 17.7244 45.4747 17.575 45.4853C17.4255 45.496 17.2796 45.536 17.1456 45.603Z" fill="white"/>
<path d="M59.2284 47.3138L55.8066 45.6029C55.536 45.4676 55.2227 45.4453 54.9357 45.541C54.6486 45.6366 54.4114 45.8424 54.2761 46.113C54.1408 46.3836 54.1185 46.6969 54.2142 46.9839C54.3099 47.2709 54.5156 47.5082 54.7862 47.6435C54.7862 47.6435 58.2042 49.3525 58.2081 49.3544C58.4796 49.4844 58.7909 49.5038 59.0764 49.4086C59.362 49.3134 59.5994 49.1111 59.7386 48.8443C59.8056 48.7103 59.8456 48.5644 59.8562 48.415C59.8668 48.2655 59.8479 48.1155 59.8006 47.9734C59.7532 47.8312 59.6783 47.6998 59.5801 47.5867C59.4819 47.4735 59.3624 47.3808 59.2284 47.3138Z" fill="white"/>
<path d="M35.3594 14.8281V17.1094C35.3594 17.4119 35.4795 17.702 35.6935 17.9159C35.9074 18.1298 36.1975 18.25 36.5 18.25C36.8025 18.25 37.0926 18.1298 37.3065 17.9159C37.5205 17.702 37.6406 17.4119 37.6406 17.1094V14.8281C37.6406 14.5256 37.5205 14.2355 37.3065 14.0216C37.0926 13.8077 36.8025 13.6875 36.5 13.6875C36.1975 13.6875 35.9074 13.8077 35.6935 14.0216C35.4795 14.2355 35.3594 14.5256 35.3594 14.8281Z" fill="white"/>
<path d="M37.6406 58.1719V55.8906C37.6406 55.5881 37.5205 55.298 37.3065 55.0841C37.0926 54.8702 36.8025 54.75 36.5 54.75C36.1975 54.75 35.9074 54.8702 35.6935 55.0841C35.4795 55.298 35.3594 55.5881 35.3594 55.8906V58.1719C35.3594 58.4744 35.4795 58.7645 35.6935 58.9784C35.9074 59.1923 36.1975 59.3125 36.5 59.3125C36.8025 59.3125 37.0926 59.1923 37.3065 58.9784C37.5205 58.7645 37.6406 58.4744 37.6406 58.1719Z" fill="white"/>
<path d="M0.581451 24.0929L5.14395 26.6593C5.31523 26.7537 5.50759 26.8031 5.70312 26.8031C5.89866 26.8031 6.09102 26.7537 6.2623 26.6593L10.8248 24.0929C11.0012 23.9937 11.148 23.8493 11.2502 23.6746C11.3524 23.4999 11.4062 23.3012 11.4062 23.0988V17.966C11.4062 17.7636 11.3524 17.5648 11.2502 17.3901C11.148 17.2154 11.0012 17.071 10.8248 16.9718L6.2623 14.4054C6.09161 14.3093 5.89902 14.2588 5.70312 14.2588C5.50723 14.2588 5.31464 14.3093 5.14395 14.4054L0.581451 16.9718C0.405046 17.071 0.258219 17.2154 0.156038 17.3901C0.0538572 17.5648 2.08393e-06 17.7636 0 17.966V23.0988C1.07196e-06 23.3012 0.0538557 23.4999 0.156037 23.6746C0.258218 23.8493 0.405046 23.9937 0.581451 24.0929Z" fill="white"/>
<path d="M73 17.966C73 17.7636 72.9461 17.5648 72.844 17.3901C72.7418 17.2154 72.595 17.071 72.4185 16.9718L67.856 14.4054C67.6854 14.3093 67.4928 14.2588 67.2969 14.2588C67.101 14.2588 66.9084 14.3093 66.7377 14.4054L62.1752 16.9718C61.9988 17.071 61.852 17.2154 61.7498 17.3901C61.6476 17.5648 61.5938 17.7636 61.5938 17.966V23.0988C61.5938 23.3012 61.6476 23.4999 61.7498 23.6746C61.852 23.8493 61.9988 23.9937 62.1752 24.0929L66.7377 26.6593C66.909 26.7537 67.1013 26.8031 67.2969 26.8031C67.4924 26.8031 67.6848 26.7537 67.856 26.6593L72.4185 24.0929C72.595 23.9937 72.7418 23.8493 72.844 23.6746C72.9461 23.4999 73 23.3012 73 23.0988V17.966Z" fill="white"/>
<path d="M0.581451 56.7433L5.14395 59.3097C5.31523 59.404 5.50759 59.4535 5.70312 59.4535C5.89866 59.4535 6.09102 59.404 6.2623 59.3097L10.8248 56.7433C11.0012 56.6441 11.148 56.4997 11.2502 56.325C11.3524 56.1503 11.4062 55.9516 11.4062 55.7492V50.6164C11.4062 50.414 11.3524 50.2152 11.2502 50.0405C11.148 49.8658 11.0012 49.7214 10.8248 49.6222L6.2623 47.0558C6.09161 46.9597 5.89902 46.9092 5.70312 46.9092C5.50723 46.9092 5.31464 46.9597 5.14395 47.0558L0.581451 49.6222C0.405046 49.7214 0.258219 49.8658 0.156038 50.0405C0.0538572 50.2152 2.08393e-06 50.414 0 50.6164L0 55.7492C1.07196e-06 55.9516 0.0538557 56.1503 0.156037 56.325C0.258218 56.4997 0.405046 56.6441 0.581451 56.7433Z" fill="white"/>
<path d="M62.1752 56.7433L66.7377 59.3097C66.909 59.404 67.1013 59.4535 67.2969 59.4535C67.4924 59.4535 67.6848 59.404 67.856 59.3097L72.4185 56.7433C72.595 56.6441 72.7418 56.4997 72.844 56.325C72.9461 56.1503 73 55.9516 73 55.7492V50.6164C73 50.414 72.9461 50.2152 72.844 50.0405C72.7418 49.8658 72.595 49.7214 72.4185 49.6222L67.856 47.0558C67.6854 46.9597 67.4928 46.9092 67.2969 46.9092C67.101 46.9092 66.9084 46.9597 66.7377 47.0558L62.1752 49.6222C61.9988 49.7214 61.852 49.8658 61.7498 50.0405C61.6476 50.2152 61.5938 50.414 61.5938 50.6164V55.7492C61.5938 55.9516 61.6476 56.1503 61.7498 56.325C61.852 56.4997 61.9988 56.6441 62.1752 56.7433Z" fill="white"/>
</g>
<defs>
<clipPath id="clip0_92_278">
<rect width="73" height="73" fill="white"/>
</clipPath>
</defs>
</svg>
