<svg width="70" height="70" viewBox="0 0 70 70" fill="none" xmlns="http://www.w3.org/2000/svg">
<g clip-path="url(#clip0_92_86)">
<path d="M22.4 -0.000976562H25.2V8.39902H22.4V-0.000976562Z" fill="white"/>
<path d="M28 -0.000976562H30.8V2.8001H28V-0.000976562Z" fill="white"/>
<path d="M33.6 -0.000976562H44.8V11.199H47.6V13.999H36.4V11.199H42V5.59902H39.1989V2.8001H36.4V5.59902H33.6V-0.000976562Z" fill="white"/>
<path d="M-0.000976562 -0.000976562V19.599H19.599V-0.000976562H-0.000976562ZM16.8001 16.8001H2.8001V2.8001H16.8001V16.8001Z" fill="white"/>
<path d="M50.4 -0.000976562V19.599H70.0011V-0.000976562H50.4ZM67.2011 16.8001H53.2V2.8001H67.2011V16.8001Z" fill="white"/>
<path d="M5.59894 5.59863H13.9989V13.9986H5.59894V5.59863Z" fill="white"/>
<path d="M30.8 5.59863H33.6011V8.39863H30.8V5.59863Z" fill="white"/>
<path d="M56 5.59863H64.4011V13.9986H56V5.59863Z" fill="white"/>
<path d="M25.1989 8.39844H30.8V11.1984H28V13.9984H30.8V19.5984H33.6V25.1984H30.8V22.3995H28V16.7995H25.1989V22.3995H28V25.1984H22.4V13.9984H25.1989V8.39844Z" fill="white"/>
<path d="M33.6 16.7998H36.4V19.5998H33.6V16.7998Z" fill="white"/>
<path d="M39.1989 16.7998H42V19.5998H39.1989V16.7998Z" fill="white"/>
<path d="M44.8 16.7998H47.6011V19.5998H44.8V16.7998Z" fill="white"/>
<path d="M5.59894 22.4004H13.9989V25.1993H16.8V28.0004H13.9989V30.8004H11.1989V25.1993H5.59894V22.4004Z" fill="white"/>
<path d="M16.8 22.4004H19.6V25.2004H16.8V22.4004Z" fill="white"/>
<path d="M36.4 22.4004H39.2V25.2004H36.4V22.4004Z" fill="white"/>
<path d="M42 22.4004H44.8V28.0004H42V22.4004Z" fill="white"/>
<path d="M47.6 22.4004H56V28.0004H53.2V25.1993H47.6V22.4004Z" fill="white"/>
<path d="M61.6 22.4004H70.0011V25.1993H64.4011V28.0004H70.0011V36.4004H61.6V33.6004H64.4011V30.8004H58.8V28.0004H61.6V22.4004Z" fill="white"/>
<path d="M19.5989 25.1992H22.4V30.8003H28V25.1992H30.8V28.0003H39.1989V30.8003H30.8V33.6003H25.1989V36.4003H11.1989V39.1992H8.39893V30.8003H11.1989V33.6003H19.5989V30.8003H16.8V28.0003H19.5989V25.1992Z" fill="white"/>
<path d="M5.59894 28H8.39894V30.8H5.59894V28Z" fill="white"/>
<path d="M44.8 28H47.6011V30.8H44.8V28Z" fill="white"/>
<path d="M-0.00109863 30.7998H5.5989V36.3998H2.79998V47.5998H-0.00109863V30.7998Z" fill="white"/>
<path d="M39.1989 30.7998H42V33.6009H39.1989V30.7998Z" fill="white"/>
<path d="M33.6 33.5996H39.1989V39.1985H36.4V36.3996H33.6V33.5996Z" fill="white"/>
<path d="M44.8 33.5996H47.6011V36.3996H44.8V33.5996Z" fill="white"/>
<path d="M58.8 36.4004H61.6011V39.2004H58.8V36.4004Z" fill="white"/>
<path d="M5.59894 39.1992H8.39894V42.0003H13.9989V44.8003H11.1989V47.6003H8.39894V44.8003H5.59894V39.1992Z" fill="white"/>
<path d="M16.8 39.1992H19.6V42.0003H16.8V39.1992Z" fill="white"/>
<path d="M61.6 39.1992H70.0011V47.6003H67.2011V42.0003H61.6V39.1992Z" fill="white"/>
<path d="M58.8 44.8V39.2H56V36.4H53.2V33.6H56V36.4H58.8V30.8H53.2V28H50.4V30.8H47.6V33.6H50.4V39.1989H53.2V44.7989H44.8V42H50.4V39.1989H44.8V36.3989H42V39.1989H39.1989V44.7989H36.3989V47.6H33.5989V44.8L36.3989 44.7989V39.2H33.5989V42H30.8V39.1989H33.6V36.3989H25.1989V39.1989H28V42H19.5989V44.8H13.9989V47.6H22.4V44.8H30.8V47.6H22.4V50.4H28V53.2H25.1989V56H22.3989V64.4011H25.1989V61.6H28V56H30.8V53.2H33.6V50.4H39.1989V47.6H42V53.2H44.8V58.8H42V53.2H36.4V56H30.8V61.6H33.6V58.8H39.1989V61.6H44.7989V64.4011H47.6V61.6H50.4V58.8H56V61.6H61.6V58.8H58.8V56H61.6V53.2H58.8V50.4H61.6V47.6H64.4011V44.8H58.8ZM56 56H47.6V47.6H56V56Z" fill="white"/>
<path d="M64.4011 47.5996H67.2011V50.3996H70.0011V53.1996H64.4011V47.5996Z" fill="white"/>
<path d="M50.4 50.4004H53.2011V53.2015H50.4V50.4004Z" fill="white"/>
<path d="M-0.00109863 50.4004V70.0015H19.5989V50.4004H-0.00109863ZM16.8 67.2015H2.79998V53.2004H16.8V67.2015Z" fill="white"/>
<path d="M5.59894 56H13.9989V64.4011H5.59894V56Z" fill="white"/>
<path d="M61.6 56H64.4011V58.8H61.6V56Z" fill="white"/>
<path d="M67.2011 58.7998H70.0011V70.0009H58.8V67.2009H67.2011V58.7998Z" fill="white"/>
<path d="M33.6 61.5996H39.1989V64.4007H33.6V61.5996Z" fill="white"/>
<path d="M50.4 61.5996H56V64.4007H58.8V67.2007H53.2V70.0007H47.6V67.2007H50.4V61.5996Z" fill="white"/>
<path d="M61.6 61.5996H64.4011V64.4007H61.6V61.5996Z" fill="white"/>
<path d="M30.8 64.4014H33.6011V67.2024H30.8V64.4014Z" fill="white"/>
<path d="M39.1989 67.2012H44.7989V70.0012H39.1989V67.2012Z" fill="white"/>
</g>
<defs>
<clipPath id="clip0_92_86">
<rect width="70" height="70" fill="white"/>
</clipPath>
</defs>
</svg>
