<svg width="30" height="30" viewBox="0 0 30 30" fill="none" xmlns="http://www.w3.org/2000/svg">
<path d="M8.9331 21.0667C8.56698 20.7006 8.56698 20.107 8.9331 19.7409L19.5581 9.11588C19.9243 8.74975 20.5178 8.74975 20.8839 9.11588C21.25 9.482 21.25 10.0756 20.8839 10.4418L10.2589 21.0667C9.8928 21.4328 9.29922 21.4328 8.9331 21.0667Z" fill="white"/>
<path d="M8.03345 9.77876C8.03345 9.26101 8.45317 8.84126 8.97095 8.84126L20.221 8.84126C20.7387 8.84126 21.1585 9.26101 21.1585 9.77876L21.1585 21.0288C21.1585 21.5466 20.7387 21.9663 20.221 21.9663C19.7031 21.9663 19.2835 21.5466 19.2835 21.0288L19.2835 10.7163L8.97095 10.7163C8.45317 10.7163 8.03345 10.2966 8.03345 9.77876Z" fill="white"/>
</svg>
