<svg width="86" height="86" viewBox="0 0 86 86" fill="none" xmlns="http://www.w3.org/2000/svg">
<path d="M19.1552 41.1009V37.3774C19.9404 37.4326 20.6864 37.5833 21.3687 37.8237C22.1403 38.1329 22.7768 37.5616 22.7768 36.8688C22.7768 36.3879 22.5289 36.0348 22.0848 35.876C21.2254 35.5487 20.2412 35.3485 19.1552 35.28V34.3229C19.1552 33.8466 18.7818 33.4727 18.305 33.4727C17.8385 33.4727 17.4726 33.8466 17.4726 34.3229V35.3128C14.7132 35.6516 13.4741 37.5039 13.4741 39.2354C13.4741 41.6237 15.4984 42.4371 17.4726 42.9755V46.5593C16.5603 46.4845 15.6761 46.2584 14.838 45.8862C14.0939 45.5598 13.3487 46.082 13.3487 46.8371C13.3487 47.2633 13.63 47.6775 14.0304 47.8432C15.098 48.2976 16.2548 48.5818 17.4726 48.6876V49.6874C17.4726 50.1775 17.8149 50.5203 18.305 50.5203C18.7974 50.5203 19.1552 50.17 19.1552 49.6874V48.6876C22.0135 48.4178 23.2969 46.6329 23.2969 44.9371C23.2969 42.39 21.2841 41.6214 19.1552 41.1009ZM21.0943 44.829C21.0943 45.4744 20.8855 46.3361 19.1552 46.5489V43.4058C20.2464 43.7205 21.0943 44.08 21.0943 44.829ZM15.6951 39.11C15.6951 38.0228 16.7628 37.6178 17.4726 37.4694V40.6769C16.3658 40.3507 15.6951 39.9435 15.6951 39.11Z" fill="white"/>
<path d="M53.5312 34.4971H50.3927C49.7422 34.4971 49.2147 35.0251 49.2147 35.6752C49.2147 36.3263 49.7422 36.8532 50.3927 36.8532H53.5312C54.1818 36.8532 54.7093 36.3263 54.7093 35.6752C54.7093 35.0251 54.1818 34.4971 53.5312 34.4971Z" fill="white"/>
<path d="M28.6425 35.6752C28.6425 36.3263 29.17 36.8532 29.8206 36.8532H45.6741C46.3247 36.8532 46.8522 36.3263 46.8522 35.6752C46.8522 35.0251 46.3247 34.4971 45.6741 34.4971H29.8206C29.17 34.4971 28.6425 35.0251 28.6425 35.6752Z" fill="white"/>
<path d="M33.016 40.8184H29.8206C29.17 40.8184 28.6425 41.3459 28.6425 41.9964C28.6425 42.647 29.17 43.1745 29.8206 43.1745H33.016C33.6666 43.1745 34.1941 42.647 34.1941 41.9964C34.1941 41.3459 33.6666 40.8184 33.016 40.8184Z" fill="white"/>
<path d="M20.7549 28.7907C25.5155 28.7907 29.3886 24.9228 29.3886 20.1685C29.3886 15.4078 25.5155 11.5342 20.7549 11.5342C16.0006 11.5342 12.1327 15.4078 12.1327 20.1685C12.1327 24.9228 16.0006 28.7907 20.7549 28.7907ZM19.5768 14.01V19.2044C19.5768 20.3853 20.538 21.3465 21.719 21.3465H26.9131C26.3583 24.2394 23.812 26.4345 20.7549 26.4345C17.3 26.4345 14.4889 23.6233 14.4889 20.1685C14.4889 17.1111 16.6842 14.5645 19.5768 14.01Z" fill="white"/>
<path d="M33.9721 21.3415H42.1703C42.8209 21.3415 43.3484 20.814 43.3484 20.1634C43.3484 19.5128 42.8209 18.9854 42.1703 18.9854H33.9721C33.3215 18.9854 32.794 19.5128 32.794 20.1634C32.794 20.814 33.3215 21.3415 33.9721 21.3415Z" fill="white"/>
<path d="M33.9721 27.9792H53.5312C54.1818 27.9792 54.7093 27.4517 54.7093 26.8011C54.7093 26.1505 54.1818 25.623 53.5312 25.623H33.9721C33.3215 25.623 32.794 26.1505 32.794 26.8011C32.794 27.4517 33.3215 27.9792 33.9721 27.9792Z" fill="white"/>
<path d="M78.8054 71.604L67.5946 62.5509C71.3548 56.4925 70.5464 48.5528 65.3724 43.3789C64.5306 42.5367 63.6099 41.824 62.6418 41.216C62.6426 36.6257 62.6399 52.5795 62.6453 20.148C62.6453 19.8331 62.4893 19.498 62.3001 19.3093C57.104 14.1363 53.7436 10.7756 48.6345 5.64345C48.4148 5.43383 48.0397 5.30176 47.7981 5.30176H10.5117C7.63722 5.30176 5.30464 7.64642 5.30464 10.5209V71.5453C5.30464 74.4197 7.63722 76.7523 10.5117 76.7523H57.4348C60.3092 76.7523 62.6418 74.4197 62.6418 71.5453V67.7165L71.6071 78.8025C73.5431 81.216 77.1234 81.3002 79.1939 79.2028C81.3071 77.0896 81.2005 73.5713 78.8054 71.604ZM63.7066 63.7094C58.5605 68.8555 50.1874 68.8555 45.0413 63.7094C39.883 58.5511 39.8835 50.2026 45.0413 45.0448C50.1865 39.8996 58.5604 39.8986 63.7066 45.0448C68.8649 50.2031 68.8644 58.5516 63.7066 63.7094ZM43.3754 65.3753C43.6533 65.6537 43.9472 65.9045 44.2403 66.1571V67.0866H41.0555V62.3875C41.7027 63.4592 42.4677 64.4676 43.3754 65.3753ZM57.4348 74.3962H10.5117C8.93323 74.3962 7.66081 73.1237 7.66081 71.5453V10.5209C7.66081 8.94242 8.93323 7.65792 10.5117 7.65792H46.6215V15.6071C46.6215 18.7686 49.194 21.341 52.3554 21.341H60.2856V39.9931C55.9308 38.2104 50.9317 38.494 46.7757 40.8208C46.6528 40.8208 37.5667 40.8185 37.6858 40.8185C37.0352 40.8185 36.5077 41.346 36.5077 41.9966C36.5077 42.6472 37.0352 43.1747 37.6858 43.1747C37.8734 43.1748 43.907 43.1771 43.5989 43.177C43.5262 43.2472 43.4473 43.307 43.3754 43.3789C42.252 44.5023 41.3253 45.769 40.6045 47.1358H29.8206C29.1726 47.1358 28.6425 47.6655 28.6425 48.3138C28.6425 48.9731 29.1726 49.4919 29.8206 49.4919H39.6131C38.5725 52.6465 38.5624 55.95 39.5412 59.0615H35.8957C35.2451 59.0615 34.7176 59.589 34.7176 60.2396V67.0866H31.5325V56.0985C31.5325 55.4479 31.005 54.9204 30.3544 54.9204H26.3726C25.722 54.9204 25.1946 55.4479 25.1946 56.0985V67.0866H22.0095V60.2396C22.0095 59.589 21.482 59.0615 20.8314 59.0615H16.8496C16.199 59.0615 15.6715 59.589 15.6715 60.2396V67.0866H14.4135C13.7629 67.0866 13.2354 67.6141 13.2354 68.2647C13.2354 68.9153 13.7629 69.4428 14.4135 69.4428C28.0444 69.4428 37.2381 69.4428 50.5918 69.4428C54.0058 70.2939 57.3182 69.9763 60.2856 68.7612V71.5453C60.2856 73.1237 59.0017 74.3962 57.4348 74.3962Z" fill="white"/>
<path d="M47.0535 47.0559C43.0081 51.1013 43.0057 57.6508 47.0535 61.6974C51.0991 65.743 57.6483 65.7435 61.6944 61.6974C65.7404 57.6526 65.7416 51.1032 61.6944 47.0559C57.6487 43.0102 51.0996 43.0098 47.0535 47.0559ZM60.0285 60.0315C56.9024 63.1564 51.8453 63.1562 48.7194 60.0315C45.5943 56.9064 45.5935 51.8477 48.7194 48.7218C51.8455 45.5969 56.9026 45.5971 60.0285 48.7218C63.1537 51.8469 63.1545 56.9055 60.0285 60.0315Z" fill="white"/>
</svg>
