<svg width="24" height="24" viewBox="0 0 24 24" fill="none" xmlns="http://www.w3.org/2000/svg">
<path d="M21 5.75H3C2.04 5.75 1.25 4.96 1.25 4V3C1.25 2.04 2.04 1.25 3 1.25H21C21.96 1.25 22.75 2.04 22.75 3V4C22.75 4.96 21.96 5.75 21 5.75ZM3 2.75C2.86 2.75 2.75 2.86 2.75 3V4C2.75 4.14 2.86 4.25 3 4.25H21C21.14 4.25 21.25 4.14 21.25 4V3C21.25 2.86 21.14 2.75 21 2.75H3Z" fill="#0C2D50"/>
<path d="M19.5 19.75H4.5C3.26 19.75 2.25 18.74 2.25 17.5V5C2.25 4.59 2.59 4.25 3 4.25H21C21.41 4.25 21.75 4.59 21.75 5V17.5C21.75 18.74 20.74 19.75 19.5 19.75ZM3.75 5.75V17.5C3.75 17.91 4.09 18.25 4.5 18.25H19.5C19.91 18.25 20.25 17.91 20.25 17.5V5.75H3.75Z" fill="#0C2D50"/>
<path d="M12 22.75C11.59 22.75 11.25 22.41 11.25 22V19C11.25 18.59 11.59 18.25 12 18.25C12.41 18.25 12.75 18.59 12.75 19V22C12.75 22.41 12.41 22.75 12 22.75Z" fill="#0C2D50"/>
<path d="M13 22.75H11C10.59 22.75 10.25 22.41 10.25 22C10.25 21.59 10.59 21.25 11 21.25H13C13.41 21.25 13.75 21.59 13.75 22C13.75 22.41 13.41 22.75 13 22.75Z" fill="#0C2D50"/>
<path d="M10 16.75C7.38 16.75 5.25 14.62 5.25 12C5.25 9.38 7.38 7.25 10 7.25C12.62 7.25 14.75 9.38 14.75 12C14.75 14.62 12.62 16.75 10 16.75ZM10 8.75C8.21 8.75 6.75 10.21 6.75 12C6.75 13.79 8.21 15.25 10 15.25C11.79 15.25 13.25 13.79 13.25 12C13.25 10.21 11.79 8.75 10 8.75Z" fill="#0C2D50"/>
<path d="M14 12.75H10.5C9.81 12.75 9.25 12.19 9.25 11.5V8C9.25 7.59 9.59 7.25 10 7.25C12.62 7.25 14.75 9.38 14.75 12C14.75 12.41 14.41 12.75 14 12.75ZM10.75 11.25H13.16C12.88 10.06 11.94 9.12 10.75 8.84V11.25Z" fill="#0C2D50"/>
<path d="M18.5 8.75H16.5C16.09 8.75 15.75 8.41 15.75 8C15.75 7.59 16.09 7.25 16.5 7.25H18.5C18.91 7.25 19.25 7.59 19.25 8C19.25 8.41 18.91 8.75 18.5 8.75Z" fill="#0C2D50"/>
<path d="M18.5 11.25H16.5C16.09 11.25 15.75 10.91 15.75 10.5C15.75 10.09 16.09 9.75 16.5 9.75H18.5C18.91 9.75 19.25 10.09 19.25 10.5C19.25 10.91 18.91 11.25 18.5 11.25Z" fill="#0C2D50"/>
<path d="M18.5 13.75H16.5C16.09 13.75 15.75 13.41 15.75 13C15.75 12.59 16.09 12.25 16.5 12.25H18.5C18.91 12.25 19.25 12.59 19.25 13C19.25 13.41 18.91 13.75 18.5 13.75Z" fill="#0C2D50"/>
<path d="M18.5 16.25H15.5C15.09 16.25 14.75 15.91 14.75 15.5C14.75 15.09 15.09 14.75 15.5 14.75H18.5C18.91 14.75 19.25 15.09 19.25 15.5C19.25 15.91 18.91 16.25 18.5 16.25Z" fill="#0C2D50"/>
</svg>
