<svg width="22" height="22" viewBox="0 0 22 22" fill="none" xmlns="http://www.w3.org/2000/svg">
<path d="M11 1.71875C4.92061 1.71875 0 6.63854 0 12.7188C0 15.3988 0.975563 17.9812 2.74691 19.9902C2.91006 20.1752 3.14484 20.2812 3.39152 20.2812H18.6085C18.8552 20.2812 19.0899 20.1752 19.2531 19.9902C21.0244 17.9812 22 15.3988 22 12.7188C22 6.6394 17.0802 1.71875 11 1.71875ZM18.2101 18.5625H3.78993C2.63227 17.1356 1.92814 15.4013 1.75897 13.5781H2.57812C3.05276 13.5781 3.4375 13.1934 3.4375 12.7188C3.4375 12.2441 3.05276 11.8594 2.57812 11.8594H1.75832C1.92895 9.98873 2.65538 8.235 3.85748 6.79155L4.43721 7.37129C4.7728 7.70688 5.31691 7.70687 5.65254 7.37125C5.98817 7.03562 5.98817 6.4915 5.65254 6.15592L5.07285 5.57623C6.51621 4.37413 8.26998 3.6477 10.1406 3.47707V4.29688C10.1406 4.77151 10.5254 5.15625 11 5.15625C11.4746 5.15625 11.8594 4.77151 11.8594 4.29688V3.47707C16.3007 3.88218 19.8366 7.41873 20.2417 11.8594H19.4219C18.9472 11.8594 18.5625 12.2441 18.5625 12.7188C18.5625 13.1934 18.9472 13.5781 19.4219 13.5781H20.241C20.0719 15.4013 19.3677 17.1356 18.2101 18.5625ZM15.1299 7.37348L12.1108 10.3926C11.7743 10.2312 11.3975 10.1406 11 10.1406C9.57842 10.1406 8.42188 11.2972 8.42188 12.7188C8.42188 14.1403 9.57842 15.2969 11 15.2969C12.4216 15.2969 13.5781 14.1403 13.5781 12.7188C13.5781 12.3212 13.4875 11.9445 13.3262 11.6079L16.3453 8.58885C16.6809 8.25322 16.6809 7.70907 16.3453 7.37348C16.0096 7.03789 15.4655 7.03785 15.1299 7.37348ZM11 13.5781C10.5261 13.5781 10.1406 13.1926 10.1406 12.7188C10.1406 12.2449 10.5261 11.8594 11 11.8594C11.4739 11.8594 11.8594 12.2449 11.8594 12.7188C11.8594 13.1926 11.4739 13.5781 11 13.5781Z" fill="#0C2D50"/>
</svg>
