<svg width="22" height="22" viewBox="0 0 22 22" fill="none" xmlns="http://www.w3.org/2000/svg">
<g clip-path="url(#clip0_2_145)">
<path d="M19.4219 0H2.57812C1.15655 0 0 1.15655 0 2.57812V19.4219C0 20.8435 1.15655 22 2.57812 22H19.4219C20.8435 22 22 20.8435 22 19.4219V2.57812C22 1.15655 20.8435 0 19.4219 0ZM20.2812 19.4219C20.2812 19.8957 19.8957 20.2812 19.4219 20.2812H2.57812C2.10427 20.2812 1.71875 19.8957 1.71875 19.4219V2.57812C1.71875 2.10427 2.10427 1.71875 2.57812 1.71875H19.4219C19.8957 1.71875 20.2812 2.10427 20.2812 2.57812V19.4219Z" fill="#0C2D50"/>
<path d="M17.875 6.70312H14.4375C13.9629 6.70312 13.5781 7.08787 13.5781 7.5625C13.5781 8.03713 13.9629 8.42188 14.4375 8.42188H17.875C18.3496 8.42188 18.7344 8.03713 18.7344 7.5625C18.7344 7.08787 18.3496 6.70312 17.875 6.70312Z" fill="#0C2D50"/>
<path d="M17.875 3.26562H14.4375C13.9629 3.26562 13.5781 3.65037 13.5781 4.125C13.5781 4.59963 13.9629 4.98438 14.4375 4.98438H17.875C18.3496 4.98438 18.7344 4.59963 18.7344 4.125C18.7344 3.65037 18.3496 3.26562 17.875 3.26562Z" fill="#0C2D50"/>
<path d="M7.5625 3.26562C5.1932 3.26562 3.26562 5.1932 3.26562 7.5625C3.26562 9.9318 5.1932 11.8594 7.5625 11.8594C9.9318 11.8594 11.8594 9.9318 11.8594 7.5625C11.8594 5.1932 9.9318 3.26562 7.5625 3.26562ZM9.99281 6.70312H8.42188V5.13219C9.15312 5.39155 9.73345 5.97188 9.99281 6.70312ZM7.5625 10.1406C6.14092 10.1406 4.98438 8.98408 4.98438 7.5625C4.98438 6.44218 5.7029 5.48698 6.70312 5.13219V7.5625C6.70312 8.03713 7.08787 8.42188 7.5625 8.42188H9.99281C9.63802 9.4221 8.68282 10.1406 7.5625 10.1406Z" fill="#0C2D50"/>
<path d="M11 15.2969C10.5254 15.2969 10.1406 15.6816 10.1406 16.1562V17.875C10.1406 18.3496 10.5254 18.7344 11 18.7344C11.4746 18.7344 11.8594 18.3496 11.8594 17.875V16.1562C11.8594 15.6816 11.4746 15.2969 11 15.2969Z" fill="#0C2D50"/>
<path d="M14.4375 13.5781C13.9629 13.5781 13.5781 13.9629 13.5781 14.4375V17.875C13.5781 18.3496 13.9629 18.7344 14.4375 18.7344C14.9121 18.7344 15.2969 18.3496 15.2969 17.875V14.4375C15.2969 13.9629 14.9121 13.5781 14.4375 13.5781Z" fill="#0C2D50"/>
<path d="M17.875 10.1406C17.4004 10.1406 17.0156 10.5254 17.0156 11V17.875C17.0156 18.3496 17.4004 18.7344 17.875 18.7344C18.3496 18.7344 18.7344 18.3496 18.7344 17.875V11C18.7344 10.5254 18.3496 10.1406 17.875 10.1406Z" fill="#0C2D50"/>
<path d="M7.5625 17.0156H4.125C3.65037 17.0156 3.26562 17.4004 3.26562 17.875C3.26562 18.3496 3.65037 18.7344 4.125 18.7344H7.5625C8.03713 18.7344 8.42188 18.3496 8.42188 17.875C8.42188 17.4004 8.03713 17.0156 7.5625 17.0156Z" fill="#0C2D50"/>
<path d="M7.5625 13.5781H4.125C3.65037 13.5781 3.26562 13.9629 3.26562 14.4375C3.26562 14.9121 3.65037 15.2969 4.125 15.2969H7.5625C8.03713 15.2969 8.42188 14.9121 8.42188 14.4375C8.42188 13.9629 8.03713 13.5781 7.5625 13.5781Z" fill="#0C2D50"/>
</g>
<defs>
<clipPath id="clip0_2_145">
<rect width="22" height="22" fill="white"/>
</clipPath>
</defs>
</svg>
