<svg width="22" height="22" viewBox="0 0 22 22" fill="none" xmlns="http://www.w3.org/2000/svg">
<g clip-path="url(#clip0_10_25)">
<path d="M19.2968 8.25H19.2087C19.0798 8.24886 18.9541 8.2089 18.8482 8.13532C18.7422 8.06175 18.6609 7.95796 18.6147 7.8375C18.5662 7.72118 18.5533 7.59304 18.5778 7.46939C18.6023 7.34574 18.663 7.23216 18.7522 7.14313L18.8148 7.08056C19.1919 6.70199 19.4037 6.1894 19.4037 5.65503C19.4037 5.12067 19.1919 4.60808 18.8148 4.2295L17.776 3.19138C17.3977 2.81395 16.8852 2.60199 16.3508 2.60199C15.8165 2.60199 15.3039 2.81395 14.9256 3.19138L14.8631 3.25394C14.7709 3.3427 14.6548 3.40263 14.5291 3.42637C14.4033 3.4501 14.2734 3.43661 14.1552 3.38756C14.037 3.3385 13.9357 3.25601 13.8637 3.1502C13.7917 3.0444 13.7522 2.91988 13.75 2.79194V2.70325C13.7495 2.16881 13.5369 1.65641 13.159 1.2785C12.7811 0.900594 12.2687 0.688046 11.7343 0.6875H10.2657C9.73131 0.688046 9.21891 0.900594 8.841 1.2785C8.46309 1.65641 8.25055 2.16881 8.25 2.70325V2.79194C8.24665 2.91897 8.20655 3.0423 8.13455 3.14701C8.06255 3.25171 7.96174 3.3333 7.84432 3.3819C7.72691 3.4305 7.59793 3.44401 7.47299 3.42081C7.34805 3.39761 7.23252 3.33869 7.14037 3.25119L7.08125 3.18863C6.70297 2.8112 6.19043 2.59924 5.65606 2.59924C5.1217 2.59924 4.60916 2.8112 4.23087 3.18863L3.18863 4.22675C2.8115 4.60533 2.59975 5.11792 2.59975 5.65228C2.59975 6.18665 2.8115 6.69924 3.18863 7.07781L3.25119 7.14037C3.34129 7.23256 3.40159 7.3497 3.42427 7.47659C3.44695 7.60347 3.43096 7.73425 3.37838 7.85194C3.3312 7.96916 3.25013 8.06964 3.14555 8.14055C3.04096 8.21146 2.91761 8.24957 2.79125 8.25H2.70325C2.16881 8.25055 1.65641 8.46309 1.2785 8.841C0.900594 9.21891 0.688046 9.73131 0.6875 10.2657V11.7343C0.688046 12.2687 0.900594 12.7811 1.2785 13.159C1.65641 13.5369 2.16881 13.7495 2.70325 13.75H2.79125C2.92024 13.7511 3.04589 13.7911 3.15184 13.8647C3.25779 13.9383 3.33913 14.042 3.38525 14.1625C3.43381 14.2788 3.44666 14.407 3.42218 14.5306C3.39769 14.6543 3.33697 14.7678 3.24775 14.8569L3.18519 14.9194C2.80806 15.298 2.59631 15.8106 2.59631 16.345C2.59631 16.8793 2.80806 17.3919 3.18519 17.7705L4.22331 18.8079C4.60153 19.1857 5.11426 19.3979 5.64884 19.3979C6.18343 19.3979 6.69616 19.1857 7.07438 18.8079L7.13694 18.7454C7.22917 18.6554 7.3463 18.5951 7.47317 18.5724C7.60004 18.5498 7.7308 18.5657 7.8485 18.6182C7.96572 18.6652 8.06623 18.7461 8.13716 18.8506C8.20808 18.9551 8.24618 19.0783 8.24656 19.2046V19.2933C8.24638 19.5585 8.29849 19.8212 8.3999 20.0662C8.50131 20.3113 8.65003 20.534 8.83757 20.7215C9.0251 20.909 9.24777 21.0578 9.49283 21.1592C9.73789 21.2606 10.0005 21.3127 10.2657 21.3125H11.7343C12.2687 21.312 12.7811 21.0994 13.159 20.7215C13.5369 20.3436 13.7495 19.8312 13.75 19.2968V19.2081C13.7534 19.081 13.7935 18.9577 13.8655 18.853C13.9375 18.7483 14.0383 18.6667 14.1557 18.6181C14.2731 18.5695 14.4021 18.556 14.527 18.5792C14.6519 18.6024 14.7675 18.6613 14.8596 18.7488L14.9222 18.8114C15.3005 19.1888 15.813 19.4008 16.3474 19.4008C16.8817 19.4008 17.3943 19.1888 17.7726 18.8114L18.8114 17.7739C19.1885 17.3954 19.4003 16.8828 19.4003 16.3484C19.4003 15.814 19.1885 15.3014 18.8114 14.9229L18.7488 14.8603C18.6587 14.7681 18.5984 14.651 18.5757 14.5241C18.553 14.3972 18.569 14.2664 18.6216 14.1488C18.6687 14.0314 18.7497 13.9308 18.8543 13.8597C18.9589 13.7887 19.0823 13.7505 19.2087 13.75H19.2968C19.8312 13.7495 20.3436 13.5369 20.7215 13.159C21.0994 12.7811 21.312 12.2687 21.3125 11.7343V10.2657C21.312 9.73131 21.0994 9.21891 20.7215 8.841C20.3436 8.46309 19.8312 8.25055 19.2968 8.25ZM19.9375 11.7343C19.9373 11.9041 19.8698 12.067 19.7496 12.1871C19.6295 12.3073 19.4666 12.3748 19.2968 12.375H19.2087C18.8098 12.3784 18.4207 12.4992 18.0899 12.7222C17.7591 12.9453 17.5012 13.2608 17.3485 13.6294C17.1958 13.998 17.155 14.4034 17.2311 14.795C17.3073 15.1866 17.497 15.5472 17.7767 15.8317L17.8386 15.8943C17.9586 16.0147 18.026 16.1777 18.026 16.3477C18.026 16.5177 17.9586 16.6808 17.8386 16.8011L16.7998 17.8386C16.6796 17.9587 16.5166 18.0262 16.3467 18.0262C16.1768 18.0262 16.0138 17.9587 15.8936 17.8386L15.8317 17.776C15.5471 17.4967 15.1865 17.3072 14.795 17.2312C14.4035 17.1553 13.9982 17.1962 13.6298 17.3488C13.2613 17.5015 12.9459 17.7591 12.7228 18.0897C12.4997 18.4203 12.3787 18.8092 12.375 19.2081V19.2968C12.3748 19.4666 12.3073 19.6295 12.1871 19.7496C12.067 19.8698 11.9041 19.9373 11.7343 19.9375H10.2657C10.0959 19.9373 9.933 19.8698 9.81287 19.7496C9.69275 19.6295 9.62518 19.4666 9.625 19.2968V19.2081C9.62307 18.8084 9.50316 18.4183 9.28031 18.0866C9.05747 17.7548 8.74162 17.4963 8.37239 17.3434C8.00317 17.1905 7.59701 17.1501 7.20488 17.2272C6.81276 17.3042 6.45213 17.4954 6.16825 17.7767L6.10569 17.8393C5.98535 17.9591 5.82244 18.0263 5.65263 18.0263C5.48281 18.0263 5.3199 17.9591 5.19956 17.8393L4.16144 16.8018C4.04141 16.6814 3.97401 16.5184 3.97401 16.3484C3.97401 16.1784 4.04141 16.0154 4.16144 15.895L4.224 15.8324C4.50395 15.5479 4.69389 15.1872 4.77014 14.7954C4.84639 14.4036 4.80556 13.9979 4.65274 13.6292C4.49993 13.2604 4.2419 12.9448 3.91085 12.7218C3.57981 12.4987 3.19041 12.3781 2.79125 12.375H2.70325C2.53337 12.3748 2.3705 12.3073 2.25037 12.1871C2.13025 12.067 2.06268 11.9041 2.0625 11.7343V10.2657C2.06268 10.0959 2.13025 9.933 2.25037 9.81287C2.3705 9.69275 2.53337 9.62518 2.70325 9.625H2.79125C3.19021 9.6216 3.57935 9.50085 3.91015 9.27779C4.24094 9.05473 4.49876 8.73924 4.65147 8.37064C4.80417 8.00204 4.845 7.59665 4.76886 7.205C4.69272 6.81336 4.50299 6.45279 4.22331 6.16825L4.16144 6.10569C4.04145 5.98544 3.97407 5.8225 3.97407 5.65263C3.97407 5.48275 4.04145 5.31981 4.16144 5.19956L5.19956 4.16075C5.31973 4.0406 5.4827 3.97309 5.65263 3.97309C5.82255 3.97309 5.98552 4.0406 6.10569 4.16075L6.16756 4.22331C6.45215 4.50285 6.81269 4.69249 7.20428 4.7686C7.59587 4.84471 8.0012 4.80393 8.36978 4.65134C8.73836 4.49875 9.0539 4.24109 9.27709 3.91046C9.50029 3.57983 9.62129 3.19084 9.625 2.79194V2.70325C9.62518 2.53337 9.69275 2.3705 9.81287 2.25037C9.933 2.13025 10.0959 2.06268 10.2657 2.0625H11.7343C11.9041 2.06268 12.067 2.13025 12.1871 2.25037C12.3073 2.3705 12.3748 2.53337 12.375 2.70325V2.79194C12.3785 3.19084 12.4994 3.57988 12.7225 3.91058C12.9456 4.24127 13.2611 4.49899 13.6297 4.65161C13.9982 4.80422 14.4036 4.84499 14.7952 4.76883C15.1867 4.69267 15.5473 4.50295 15.8317 4.22331L15.8943 4.16075C16.0145 4.0406 16.1774 3.97309 16.3474 3.97309C16.5173 3.97309 16.6803 4.0406 16.8004 4.16075L17.8386 5.19956C17.9585 5.31981 18.0259 5.48275 18.0259 5.65263C18.0259 5.8225 17.9585 5.98544 17.8386 6.10569L17.776 6.16825C17.4963 6.45283 17.3065 6.81347 17.2304 7.20517C17.1543 7.59688 17.1952 8.00233 17.348 8.37095C17.5008 8.73958 17.7587 9.05506 18.0896 9.27807C18.4205 9.50108 18.8097 9.62174 19.2087 9.625H19.2968C19.4666 9.62518 19.6295 9.69275 19.7496 9.81287C19.8698 9.933 19.9373 10.0959 19.9375 10.2657V11.7343Z" fill="#0C2D50"/>
<path d="M11 6.1875C10.0482 6.1875 9.11773 6.46975 8.32632 6.99855C7.53491 7.52736 6.91808 8.27897 6.55383 9.15834C6.18959 10.0377 6.09428 11.0053 6.27997 11.9389C6.46566 12.8724 6.92401 13.7299 7.59705 14.403C8.27009 15.076 9.1276 15.5343 10.0611 15.72C10.9947 15.9057 11.9623 15.8104 12.8417 15.4462C13.721 15.0819 14.4726 14.4651 15.0014 13.6737C15.5303 12.8823 15.8125 11.9518 15.8125 11C15.811 9.72409 15.3035 8.50086 14.4013 7.59866C13.4991 6.69645 12.2759 6.18896 11 6.1875ZM11 14.4375C10.3201 14.4375 9.65552 14.2359 9.09023 13.8582C8.52494 13.4805 8.08434 12.9436 7.82417 12.3155C7.56399 11.6874 7.49592 10.9962 7.62855 10.3294C7.76119 9.66257 8.08858 9.05006 8.56932 8.56932C9.05007 8.08858 9.66257 7.76119 10.3294 7.62855C10.9962 7.49591 11.6874 7.56399 12.3155 7.82416C12.9436 8.08434 13.4805 8.52493 13.8582 9.09023C14.2359 9.65552 14.4375 10.3201 14.4375 11C14.4364 11.9113 14.0739 12.7851 13.4295 13.4295C12.7851 14.0739 11.9113 14.4364 11 14.4375Z" fill="#0C2D50"/>
</g>
<defs>
<clipPath id="clip0_10_25">
<rect width="22" height="22" fill="white"/>
</clipPath>
</defs>
</svg>
