<svg width="15" height="15" viewBox="0 0 15 15" fill="none" xmlns="http://www.w3.org/2000/svg">
<g clip-path="url(#clip0_28_991)">
<path d="M7.48535 14.9971C6.2666 14.9971 5.04785 14.9971 3.83203 14.9971C2.16211 14.9941 0.958008 13.7959 0.949219 12.126C0.946289 11.543 0.946289 10.9599 0.949219 10.3769C0.952148 9.77635 1.31543 9.38963 1.875 9.3867C2.43457 9.38378 2.80078 9.77049 2.80664 10.3711C2.80957 10.9629 2.80371 11.5576 2.80957 12.1523C2.81543 12.7734 3.17871 13.1367 3.80566 13.1367H11.209C11.833 13.1367 12.1992 12.7734 12.2051 12.1523C12.208 11.5605 12.2021 10.9658 12.208 10.3711C12.2109 9.77049 12.5771 9.3867 13.1367 9.3867C13.6963 9.3867 14.0654 9.77342 14.0596 10.3769C14.0537 11.1357 14.0947 11.9033 14.001 12.6504C13.8252 14.0215 12.6592 14.9883 11.2705 14.9941C10.0049 15.0029 8.74512 14.9971 7.48535 14.9971Z" fill="#6D8196"/>
<path d="M6.57129 3.19922C6.43066 3.33105 6.3457 3.4043 6.26953 3.48047C5.67481 4.08105 5.08594 4.68457 4.48828 5.2793C4.06348 5.7041 3.47461 5.7334 3.09375 5.36426C2.71289 4.99512 2.72754 4.38574 3.14356 3.96387C4.35645 2.74512 5.57227 1.5293 6.79102 0.316406C7.22168 -0.111328 7.78125 -0.111328 8.20898 0.316406C9.43652 1.53516 10.6582 2.75684 11.877 3.98437C12.2783 4.38867 12.2813 4.99805 11.9063 5.36133C11.5313 5.72461 10.9395 5.70703 10.5322 5.30273C9.92578 4.69922 9.33106 4.08691 8.73047 3.48047C8.6543 3.40137 8.56934 3.32812 8.44629 3.21387C8.4375 3.38086 8.42871 3.48926 8.42871 3.60059C8.42871 5.5166 8.43164 7.43555 8.42578 9.35156C8.42285 10.0723 7.79297 10.5 7.13379 10.2422C6.77051 10.1016 6.57129 9.78516 6.57129 9.32227C6.56836 7.42676 6.56836 5.53125 6.57129 3.63281V3.19922Z" fill="#6D8196"/>
</g>
<defs>
<clipPath id="clip0_28_991">
<rect width="15" height="15" fill="white"/>
</clipPath>
</defs>
</svg>
